<svg width="157" height="36" viewBox="0 0 157 36" fill="none" xmlns="http://www.w3.org/2000/svg">
<path d="M15.426 4.298C19.296 4.298 22.4923 5.31567 25.015 7.351C27.5663 9.38633 29.2147 12.1383 29.96 15.607H22.177C21.6037 14.2023 20.715 13.0987 19.511 12.296C18.3357 11.4933 16.931 11.092 15.297 11.092C13.147 11.092 11.4127 11.8803 10.094 13.457C8.77533 15.0337 8.116 17.1407 8.116 19.778C8.116 22.4153 8.77533 24.5223 10.094 26.099C11.4127 27.647 13.147 28.421 15.297 28.421C16.931 28.421 18.3357 28.0197 19.511 27.217C20.715 26.4143 21.6037 25.325 22.177 23.949H29.96C29.2147 27.389 27.5663 30.141 25.015 32.205C22.4923 34.2403 19.296 35.258 15.426 35.258C12.4733 35.258 9.879 34.613 7.643 33.323C5.407 32.0043 3.67267 30.1697 2.44 27.819C1.236 25.4683 0.634 22.788 0.634 19.778C0.634 16.768 1.236 14.0877 2.44 11.737C3.67267 9.38633 5.407 7.566 7.643 6.276C9.879 4.95733 12.4733 4.298 15.426 4.298ZM41.4339 3.18V35H34.0809V3.18H41.4339ZM57.7336 10.705C60.113 10.705 62.2343 11.2067 64.0976 12.21C65.9896 13.1847 67.466 14.6037 68.5266 16.467C69.616 18.3303 70.1606 20.509 70.1606 23.003C70.1606 25.497 69.616 27.6757 68.5266 29.539C67.466 31.4023 65.9896 32.8357 64.0976 33.839C62.2343 34.8137 60.113 35.301 57.7336 35.301C55.3543 35.301 53.2186 34.8137 51.3266 33.839C49.4346 32.8357 47.944 31.4023 46.8546 29.539C45.794 27.6757 45.2636 25.497 45.2636 23.003C45.2636 20.509 45.794 18.3303 46.8546 16.467C47.944 14.6037 49.4346 13.1847 51.3266 12.21C53.2186 11.2067 55.3543 10.705 57.7336 10.705ZM57.7336 17.069C56.329 17.069 55.1393 17.585 54.1646 18.617C53.2186 19.6203 52.7456 21.0823 52.7456 23.003C52.7456 24.9237 53.2186 26.3857 54.1646 27.389C55.1393 28.3923 56.329 28.894 57.7336 28.894C59.1383 28.894 60.3136 28.3923 61.2596 27.389C62.2056 26.3857 62.6786 24.9237 62.6786 23.003C62.6786 21.0823 62.2056 19.6203 61.2596 18.617C60.3136 17.585 59.1383 17.069 57.7336 17.069ZM87.5615 28.679V35H84.2505C81.4412 35 79.2482 34.312 77.6715 32.936C76.1235 31.5313 75.3495 29.2237 75.3495 26.013V17.198H72.1245V11.006H75.3495V5.115H82.7025V11.006H87.5185V17.198H82.7025V26.142C82.7025 27.088 82.8889 27.7473 83.2615 28.12C83.6629 28.4927 84.3222 28.679 85.2395 28.679H87.5615ZM106.916 10.748C109.668 10.748 111.847 11.6653 113.452 13.5C115.086 15.3347 115.903 17.8573 115.903 21.068V35H108.55V21.928C108.55 20.3227 108.12 19.0757 107.26 18.187C106.429 17.2697 105.311 16.811 103.906 16.811C102.416 16.811 101.226 17.284 100.337 18.23C99.4772 19.176 99.0472 20.5233 99.0472 22.272V35H91.6942V3.18H99.0472V15.392C99.7352 13.9587 100.753 12.8263 102.1 11.995C103.476 11.1637 105.082 10.748 106.916 10.748ZM120.065 4.255C120.065 3.137 120.466 2.21967 121.269 1.503C122.071 0.757664 123.132 0.384997 124.451 0.384997C125.769 0.384997 126.83 0.757664 127.633 1.503C128.435 2.21967 128.837 3.137 128.837 4.255C128.837 5.34433 128.435 6.26167 127.633 7.007C126.83 7.72366 125.769 8.082 124.451 8.082C123.132 8.082 122.071 7.72366 121.269 7.007C120.466 6.26167 120.065 5.34433 120.065 4.255ZM128.106 11.006V35H120.753V11.006H128.106ZM144.406 10.705C146.785 10.705 148.906 11.2067 150.77 12.21C152.662 13.1847 154.138 14.6037 155.199 16.467C156.288 18.3303 156.833 20.509 156.833 23.003C156.833 25.497 156.288 27.6757 155.199 29.539C154.138 31.4023 152.662 32.8357 150.77 33.839C148.906 34.8137 146.785 35.301 144.406 35.301C142.026 35.301 139.891 34.8137 137.999 33.839C136.107 32.8357 134.616 31.4023 133.527 29.539C132.466 27.6757 131.936 25.497 131.936 23.003C131.936 20.509 132.466 18.3303 133.527 16.467C134.616 14.6037 136.107 13.1847 137.999 12.21C139.891 11.2067 142.026 10.705 144.406 10.705ZM144.406 17.069C143.001 17.069 141.811 17.585 140.837 18.617C139.891 19.6203 139.418 21.0823 139.418 23.003C139.418 24.9237 139.891 26.3857 140.837 27.389C141.811 28.3923 143.001 28.894 144.406 28.894C145.81 28.894 146.986 28.3923 147.932 27.389C148.878 26.3857 149.351 24.9237 149.351 23.003C149.351 21.0823 148.878 19.6203 147.932 18.617C146.986 17.585 145.81 17.069 144.406 17.069Z" fill="black"/>
</svg>
