<svg width="47" height="65" viewBox="0 0 47 65" fill="none" xmlns="http://www.w3.org/2000/svg">
<path d="M16.426 17.298C20.296 17.298 23.4923 18.3157 26.015 20.351C28.5663 22.3863 30.2147 25.1383 30.96 28.607H23.177C22.6037 27.2023 21.715 26.0987 20.511 25.296C19.3357 24.4933 17.931 24.092 16.297 24.092C14.147 24.092 12.4127 24.8803 11.094 26.457C9.77533 28.0337 9.116 30.1407 9.116 32.778C9.116 35.4153 9.77533 37.5223 11.094 39.099C12.4127 40.647 14.147 41.421 16.297 41.421C17.931 41.421 19.3357 41.0197 20.511 40.217C21.715 39.4143 22.6037 38.325 23.177 36.949H30.96C30.2147 40.389 28.5663 43.141 26.015 45.205C23.4923 47.2403 20.296 48.258 16.426 48.258C13.4733 48.258 10.879 47.613 8.643 46.323C6.407 45.0043 4.67267 43.1697 3.44 40.819C2.236 38.4683 1.634 35.788 1.634 32.778C1.634 29.768 2.236 27.0877 3.44 24.737C4.67267 22.3863 6.407 20.566 8.643 19.276C10.879 17.9573 13.4733 17.298 16.426 17.298Z" fill="black"/>
<circle cx="41" cy="42" r="6" fill="black"/>
</svg>
