<svg width="21" height="22" viewBox="0 0 21 22" fill="none" xmlns="http://www.w3.org/2000/svg">
<path d="M18.5769 5.41023C18.5569 5.21615 18.463 5.03631 18.3137 4.90582C18.1643 4.77533 17.9703 4.70356 17.7693 4.70454H15.3462C15.3462 3.45682 14.8356 2.2602 13.9268 1.37793C13.018 0.495656 11.7853 0 10.5 0C9.21477 0 7.98213 0.495656 7.0733 1.37793C6.16446 2.2602 5.65389 3.45682 5.65389 4.70454H3.23081C3.02988 4.70356 2.8358 4.77533 2.68644 4.90582C2.5371 5.03631 2.44321 5.21615 2.42313 5.41023L0.807737 21.0921C0.797256 21.2014 0.810534 21.3116 0.846708 21.4156C0.882883 21.5195 0.94115 21.615 1.01774 21.6958C1.09325 21.777 1.18544 21.842 1.28838 21.8866C1.39132 21.9312 1.50272 21.9543 1.61543 21.9545H19.3847C19.4974 21.9543 19.6088 21.9312 19.7117 21.8866C19.8146 21.842 19.9068 21.777 19.9824 21.6958C20.059 21.615 20.1172 21.5195 20.1534 21.4156C20.1895 21.3116 20.2029 21.2014 20.1924 21.0921L18.5769 5.41023ZM10.5 1.56818C11.3569 1.56818 12.1787 1.89862 12.7846 2.4868C13.3904 3.07499 13.7308 3.87273 13.7308 4.70454H7.26927C7.26927 3.87273 7.60966 3.07499 8.21555 2.4868C8.82143 1.89862 9.64319 1.56818 10.5 1.56818ZM3.96581 6.27273H5.65389V7.84091C5.65389 8.04887 5.73898 8.2483 5.89046 8.39534C6.04194 8.54239 6.24737 8.625 6.46158 8.625C6.67579 8.625 6.88124 8.54239 7.0327 8.39534C7.18418 8.2483 7.26927 8.04887 7.26927 7.84091V6.27273H13.7308V7.84091C13.7308 8.04887 13.8159 8.2483 13.9674 8.39534C14.1189 8.54239 14.3243 8.625 14.5385 8.625C14.7527 8.625 14.9582 8.54239 15.1096 8.39534C15.2611 8.2483 15.3462 8.04887 15.3462 7.84091V6.27273H17.0343L18.165 17.25H2.81889L3.96581 6.27273ZM2.51197 20.3863L2.6735 18.8182H18.3266L18.4881 20.3863H2.51197Z" fill="white"/>
</svg>